<svg width="26" height="25" viewBox="0 0 26 25" fill="none" xmlns="http://www.w3.org/2000/svg">
<g id="Vector">
<path d="M9.37055 1.48599C6.6431 2.43749 4.62088 3.9402 3.10581 6.14555C1.90314 7.88605 1.22602 9.70742 1.0206 11.7442C0.892328 12.971 0.936228 13.8785 1.17468 15.177C1.35182 16.1416 1.45235 16.5019 1.78128 17.3571C2.68017 19.6848 4.32406 21.684 6.46808 23.0639C7.58168 23.7799 8.61434 24.2422 9.85408 24.5754C11.027 24.8921 12.2007 25.0265 13.4112 24.9864C14.294 24.9537 15.9916 24.6515 16.8064 24.3821C18.2321 23.9093 19.7369 23.0385 20.9002 22.0195C22.558 20.5646 23.8654 18.5124 24.4803 16.4053C24.9148 14.9209 25.0385 13.7764 24.9503 12.1195C24.9096 11.336 24.6005 9.78686 24.3493 9.11392C24.2622 8.88063 24.1692 8.61487 24.1388 8.52938C23.9931 8.11031 23.4141 6.98942 23.0782 6.47104C21.0521 3.35321 17.6977 1.31824 14.0432 0.992231C12.9039 0.885063 12.2719 0.919635 10.9526 1.14273C10.1148 1.287 9.64706 1.38728 9.37055 1.48599ZM13.1154 8.26708C14.0646 8.40915 14.8926 9.06725 15.1866 9.9193C15.2483 10.0949 15.3095 10.2946 15.3215 10.3595L15.3436 10.4801L14.0752 10.713L13.9935 10.4548C13.886 10.1102 13.7092 9.86943 13.4355 9.68958C12.7602 9.24792 11.8783 9.41946 11.4113 10.0853C11.2164 10.3608 11.1501 10.6414 11.2105 10.9707C11.2744 11.3185 11.3891 11.5419 11.6032 11.7183C11.8388 11.9051 12.0243 11.9526 13.0113 12.0589C14.0086 12.1682 14.4551 12.2732 14.9133 12.4958C15.62 12.8407 16.0906 13.4781 16.2405 14.2943C16.3171 14.7117 16.2951 15.0465 16.1658 15.4921C15.9672 16.1757 15.4819 16.7682 14.8209 17.1532C14.6216 17.2713 14.4224 17.3367 13.969 17.4343C13.2796 17.5849 12.99 17.5854 12.4542 17.4488C11.9439 17.3172 11.2462 16.8605 10.9476 16.4647C10.7248 16.1605 10.5054 15.6878 10.4424 15.3447L10.4024 15.1267L11.6707 14.8938L11.7537 15.1854C11.9587 15.9003 12.6417 16.3837 13.4006 16.345C13.9605 16.3189 14.4027 16.0795 14.7328 15.6306C14.9927 15.2809 15.061 15.0382 15.0163 14.6342C14.9111 13.7139 14.3099 13.3545 12.6048 13.1882C12.2052 13.1514 11.772 13.0919 11.6421 13.0534C11.0568 12.8877 10.6001 12.5401 10.2721 12.0107C10.1336 11.7916 10.0908 11.6653 10.0048 11.1969C9.91792 10.7239 9.90918 10.596 9.95856 10.3569C10.1324 9.53874 10.8532 8.73046 11.6896 8.41865C12.0625 8.28306 12.7266 8.20905 13.1154 8.26708ZM6.66109 9.51468C7.24122 9.5184 7.89599 9.71455 8.39506 10.0256C9.0717 10.4478 9.44759 10.9972 9.59066 11.7763C9.73203 12.5461 9.60719 13.0963 9.14323 13.752C8.9093 14.0826 8.74958 14.2558 8.50655 14.4298C7.96945 14.8209 7.75689 14.8935 6.2985 15.1613L5.00164 15.3994L5.63184 18.8312L4.34922 19.0667L2.7141 10.1628L4.49551 9.83567C5.92539 9.57308 6.35549 9.50848 6.66109 9.51468ZM20.8012 7.84317L19.2029 8.15107C17.6473 8.45112 17.5959 8.46536 17.419 8.59851C17.3208 8.67886 17.181 8.85315 17.1081 8.99118C16.8973 9.39422 16.8976 9.60988 17.106 10.6646L17.2898 11.5848L18.8125 11.3196L20.3343 11.0497L20.4506 11.8433L18.9464 12.1291L17.4431 12.4196L17.7925 14.4024L18.1474 16.3889L17.2401 16.5556L16.6088 13.0378C16.0176 9.73794 15.9806 9.50983 16.0261 9.27617C16.1666 8.51691 16.6972 7.93049 17.4896 7.64595C17.6231 7.59747 18.3845 7.43846 19.1913 7.28552L20.6488 7.01306L20.8012 7.84317Z" fill="black"/>
<path d="M11.5611 8.86889C11.4272 8.94143 11.2287 9.06416 11.121 9.14626C10.8624 9.34236 10.4305 9.95859 10.3477 10.2566C10.1334 11.0151 10.46 11.9378 11.0999 12.4004C11.4562 12.6561 11.8185 12.7574 12.7347 12.8528C13.6858 12.9514 14.1595 13.0705 14.5465 13.3062C14.912 13.5315 15.1487 13.8045 15.2803 14.1734C15.805 15.6398 14.2884 17.088 12.727 16.6078C12.1805 16.4397 11.6564 15.9655 11.4716 15.4673L11.4025 15.2786L11.127 15.3292C10.975 15.3571 10.8398 15.3963 10.8337 15.4166C10.8046 15.4987 11.0506 16.0096 11.2322 16.2495C11.5002 16.6125 12.0522 16.9714 12.5324 17.0989C13.6742 17.407 14.909 16.9645 15.5265 16.0218C15.8029 15.6019 15.9099 15.2754 15.9279 14.8119C15.9467 14.2188 15.7031 13.5876 15.3078 13.2C14.8466 12.7478 14.229 12.54 12.9227 12.406C11.9414 12.3033 11.8594 12.2848 11.5267 12.0775C11.2276 11.8927 11.0817 11.7134 10.9359 11.3471C10.6575 10.6599 10.9301 9.87163 11.6004 9.40339C11.8136 9.25398 11.9099 9.21711 12.2994 9.14557C12.689 9.07404 12.7922 9.07427 13.0445 9.13818C13.585 9.27382 14.0236 9.62952 14.2455 10.1161L14.3434 10.3282L14.9182 10.2227L14.8471 9.99602C14.6322 9.30683 13.8239 8.70263 12.9919 8.61094C12.5802 8.5619 11.9104 8.68491 11.5611 8.86889Z" fill="black"/>
<path d="M3.87115 14.538L4.64165 18.6535L5.24056 18.5722L4.6095 15.1359L5.97763 14.8846C6.98947 14.6988 7.4231 14.6 7.66076 14.5036C8.60663 14.119 9.27404 13.2342 9.30225 12.3182C9.30963 11.9573 9.15787 11.3716 8.96829 11.0612C8.65963 10.557 8.00724 10.1064 7.36014 9.95197C6.73935 9.80711 6.62754 9.81326 4.80471 10.1288L3.10455 10.4171L3.87115 14.538ZM6.58309 10.32C7.24825 10.3321 7.99153 10.6893 8.36109 11.1775C8.56115 11.438 8.58087 11.4919 8.66008 11.9232C8.73502 12.3313 8.73695 12.422 8.66637 12.6795C8.56313 13.0532 8.22344 13.5566 7.90597 13.8066C7.47606 14.1397 7.21685 14.2256 5.80597 14.4847L4.53286 14.7185L3.80897 10.7767L5.06784 10.5455C5.79466 10.412 6.43072 10.3192 6.58309 10.32Z" fill="black"/>
<path d="M4.80833 14.3467L5.98132 14.1026C7.00401 13.8956 7.18197 13.8485 7.40417 13.7214C7.87535 13.4527 8.21527 13.0308 8.33034 12.5878C8.42189 12.2306 8.29984 11.673 8.07141 11.365C7.76638 10.9608 7.1718 10.6912 6.55586 10.6797C6.32407 10.6743 5.90177 10.7279 5.21296 10.8544L4.20112 11.0402L4.80833 14.3467Z" fill="black"/>
<path d="M9.11193 17.5898L6.28401 19.6781L6.85204 22.6752L10.248 23.5839L13.0759 21.4955L12.5079 18.4985L9.11193 17.5898ZM8.85902 18.0116C8.96254 18.0511 9.08087 18.0606 9.19609 18.0387C9.31131 18.0169 9.41767 17.9648 9.49955 17.8902L11.9616 18.549C11.9634 18.5833 11.9698 18.6171 11.9806 18.6497L9.93016 20.1637C9.82667 20.1243 9.70871 20.1148 9.59355 20.1366C9.47839 20.1584 9.37209 20.2105 9.29022 20.285L6.82761 19.6263C6.82579 19.5921 6.81941 19.5584 6.80858 19.5259L8.85902 18.0116ZM12.2543 18.9088C12.2908 18.9226 12.329 18.9327 12.3684 18.9392L12.7802 21.112C12.6818 21.1705 12.6062 21.2528 12.5644 21.347C12.5225 21.4411 12.5167 21.5422 12.5477 21.6352L10.4973 23.1493C10.461 23.1356 10.4228 23.1255 10.3833 23.1192L9.97099 20.9586C10.0694 20.9002 10.145 20.8179 10.1869 20.7237C10.2288 20.6296 10.2347 20.5286 10.2038 20.4355L12.2543 18.9088ZM6.67237 19.9792L9.13468 20.6379C9.13984 20.7359 9.18223 20.8278 9.25562 20.9001C9.32901 20.9724 9.42954 21.0214 9.54246 21.0398L9.95429 23.2126C9.91971 23.2332 9.88819 23.2567 9.85934 23.2829L7.39703 22.6241C7.39187 22.5262 7.34948 22.4343 7.27609 22.3619C7.2027 22.2896 7.10217 22.2407 6.98924 22.2223L6.57742 20.0494C6.61189 20.0288 6.64353 20.0053 6.67237 19.9792Z" fill="#743ABE"/>
<path d="M16.2359 19.3343L14.6378 20.5449L14.97 22.2974L16.9002 22.8393L18.4982 21.6287L18.1661 19.8762L16.2359 19.3343ZM16.0937 19.5799C16.1526 19.6033 16.2198 19.6092 16.2851 19.5968C16.3504 19.5845 16.4106 19.5544 16.4568 19.5111L17.8562 19.9039C17.8573 19.924 17.8611 19.9437 17.8673 19.9628L16.7086 20.8405C16.6498 20.8171 16.5828 20.8112 16.5175 20.8236C16.4522 20.8359 16.3921 20.866 16.3459 20.9093L14.9462 20.5165C14.945 20.4965 14.9413 20.4768 14.935 20.4578L16.0937 19.5799ZM18.0235 20.115C18.0442 20.1232 18.066 20.1292 18.0883 20.1332L18.3291 21.4037C18.2735 21.4375 18.2309 21.4854 18.2074 21.5403C18.184 21.5951 18.181 21.6541 18.1989 21.7086L17.0402 22.5863C17.0196 22.5782 16.9979 22.5721 16.9754 22.5683L16.7344 21.3049C16.79 21.2711 16.8327 21.2233 16.8562 21.1684C16.8797 21.1136 16.8827 21.0546 16.8648 21.0002L18.0235 20.115ZM14.8592 20.722L16.2587 21.1149C16.262 21.1721 16.2863 21.2259 16.3282 21.2684C16.3701 21.3109 16.4273 21.3398 16.4915 21.351L16.7323 22.6215C16.7127 22.6334 16.6949 22.647 16.6786 22.6622L15.2791 22.2694C15.2759 22.2121 15.2515 22.1583 15.2096 22.1158C15.1677 22.0734 15.1105 22.0444 15.0464 22.0333L14.8056 20.7628C14.8251 20.7509 14.8429 20.7372 14.8592 20.722Z" fill="#743ABE"/>
<path d="M20.7641 16.3344L19.1661 17.545L19.4982 19.2974L21.4284 19.8393L23.0265 18.6287L22.6943 16.8763L20.7641 16.3344ZM20.622 16.5799C20.6808 16.6033 20.748 16.6093 20.8133 16.5969C20.8787 16.5845 20.9388 16.5544 20.9851 16.5111L22.3844 16.904C22.3856 16.924 22.3893 16.9438 22.3956 16.9628L21.2369 17.8405C21.178 17.8172 21.111 17.8112 21.0457 17.8236C20.9805 17.836 20.9203 17.866 20.8741 17.9093L19.4744 17.5165C19.4733 17.4965 19.4695 17.4768 19.4633 17.4578L20.622 16.5799ZM22.5518 17.1151C22.5725 17.1233 22.5942 17.1293 22.6166 17.1332L22.8574 18.4037C22.8017 18.4376 22.7591 18.4854 22.7357 18.5403C22.7122 18.5951 22.7092 18.6541 22.7272 18.7086L21.5684 19.5863C21.5478 19.5782 21.5261 19.5722 21.5037 19.5683L21.2626 18.3049C21.3183 18.2712 21.3609 18.2233 21.3844 18.1685C21.4079 18.1136 21.4109 18.0547 21.393 18.0002L22.5518 17.1151ZM19.3874 17.7221L20.787 18.1149C20.7902 18.1721 20.8146 18.226 20.8565 18.2684C20.8984 18.3109 20.9556 18.3399 21.0197 18.351L21.2605 19.6215C21.241 19.6334 21.2232 19.6471 21.2069 19.6623L19.8073 19.2694C19.8041 19.2122 19.7797 19.1584 19.7378 19.1159C19.696 19.0734 19.6387 19.0445 19.5746 19.0333L19.3338 17.7628C19.3533 17.7509 19.3712 17.7372 19.3874 17.7221Z" fill="#743ABE"/>
<path d="M22.7641 11.3344L21.1661 12.545L21.4982 14.2974L23.4284 14.8393L25.0265 13.6287L24.6943 11.8763L22.7641 11.3344ZM22.622 11.5799C22.6808 11.6033 22.748 11.6093 22.8133 11.5969C22.8787 11.5845 22.9388 11.5544 22.9851 11.5111L24.3844 11.904C24.3856 11.924 24.3893 11.9438 24.3956 11.9628L23.2369 12.8405C23.178 12.8172 23.111 12.8112 23.0457 12.8236C22.9805 12.836 22.9203 12.866 22.8741 12.9093L21.4744 12.5165C21.4733 12.4965 21.4695 12.4768 21.4633 12.4578L22.622 11.5799ZM24.5518 12.1151C24.5725 12.1232 24.5942 12.1293 24.6166 12.1332L24.8574 13.4037C24.8017 13.4376 24.7591 13.4854 24.7357 13.5403C24.7122 13.5952 24.7092 13.6541 24.7272 13.7086L23.5684 14.5863C23.5478 14.5782 23.5261 14.5722 23.5037 14.5683L23.2626 13.3049C23.3183 13.2712 23.3609 13.2233 23.3844 13.1685C23.4079 13.1136 23.4109 13.0547 23.393 13.0002L24.5518 12.1151ZM21.3874 12.7221L22.787 13.1149C22.7902 13.1722 22.8146 13.226 22.8565 13.2684C22.8984 13.3109 22.9556 13.3399 23.0197 13.351L23.2605 14.6215C23.241 14.6334 23.2232 14.6471 23.2069 14.6623L21.8073 14.2694C21.8041 14.2122 21.7797 14.1584 21.7378 14.1159C21.696 14.0734 21.6387 14.0445 21.5746 14.0333L21.3338 12.7628C21.3533 12.7509 21.3712 12.7373 21.3874 12.7221Z" fill="#743ABE"/>
<path d="M21.7641 7.33438L20.1661 8.54497L20.4982 10.2974L22.4284 10.8393L24.0265 9.62873L23.6943 7.87626L21.7641 7.33438ZM21.622 7.57993C21.6808 7.60334 21.748 7.60926 21.8133 7.59688C21.8787 7.5845 21.9388 7.55444 21.9851 7.51111L23.3844 7.90397C23.3856 7.92402 23.3893 7.94376 23.3956 7.96283L22.2369 8.84054C22.178 8.81715 22.111 8.81122 22.0457 8.82359C21.9805 8.83596 21.9203 8.866 21.8741 8.90929L20.4744 8.51649C20.4733 8.4965 20.4695 8.4768 20.4633 8.45778L21.622 7.57993ZM23.5518 8.11507C23.5725 8.12325 23.5942 8.12927 23.6166 8.1332L23.8574 9.40374C23.8017 9.43756 23.7591 9.48542 23.7357 9.54028C23.7122 9.59515 23.7092 9.65414 23.7272 9.7086L22.5684 10.5863C22.5478 10.5782 22.5261 10.5722 22.5037 10.5683L22.2626 9.30494C22.3183 9.27115 22.3609 9.22333 22.3844 9.16848C22.4079 9.11363 22.4109 9.05466 22.393 9.00019L23.5518 8.11507ZM20.3874 8.72207L21.787 9.11491C21.7902 9.17215 21.8146 9.22596 21.8565 9.26845C21.8984 9.31094 21.9556 9.33986 22.0197 9.35098L22.2605 10.6215C22.241 10.6334 22.2232 10.6471 22.2069 10.6623L20.8073 10.2694C20.8041 10.2122 20.7797 10.1584 20.7378 10.1159C20.696 10.0734 20.6387 10.0445 20.5746 10.0333L20.3338 8.7628C20.3533 8.75089 20.3712 8.73725 20.3874 8.72207Z" fill="#743ABE"/>
<path d="M13.2359 4.33436L11.6378 5.54496L11.97 7.29743L13.9002 7.83931L15.4982 6.62871L15.1661 4.87624L13.2359 4.33436ZM13.0937 4.57991C13.1526 4.60332 13.2198 4.60924 13.2851 4.59686C13.3504 4.58448 13.4106 4.55442 13.4568 4.51109L14.8562 4.90396C14.8573 4.924 14.8611 4.94374 14.8673 4.96281L13.7086 5.84052C13.6498 5.81714 13.5828 5.8112 13.5175 5.82357C13.4522 5.83595 13.3921 5.86598 13.3459 5.90928L11.9462 5.51647C11.945 5.49648 11.9413 5.47679 11.935 5.45777L13.0937 4.57991ZM15.0235 5.11506C15.0442 5.12323 15.066 5.12925 15.0883 5.13318L15.3291 6.40373C15.2735 6.43755 15.2309 6.4854 15.2074 6.54027C15.184 6.59514 15.181 6.65413 15.1989 6.70859L14.0402 7.58629C14.0196 7.57817 13.9979 7.57214 13.9754 7.56831L13.7344 6.30492C13.79 6.27113 13.8327 6.22331 13.8562 6.16846C13.8796 6.11362 13.8827 6.05464 13.8648 6.00018L15.0235 5.11506ZM11.8592 5.72206L13.2587 6.1149C13.262 6.17214 13.2863 6.22595 13.3282 6.26843C13.3701 6.31092 13.4273 6.33985 13.4915 6.35097L13.7323 7.62151C13.7127 7.63338 13.6949 7.64705 13.6786 7.66224L12.2791 7.2694C12.2759 7.21216 12.2515 7.15835 12.2096 7.11586C12.1677 7.07338 12.1105 7.04445 12.0464 7.03333L11.8056 5.76279C11.8251 5.75087 11.8429 5.73724 11.8592 5.72206Z" fill="#743ABE"/>
<path d="M7.11193 2.58982L4.28401 4.67814L4.85204 7.67516L8.248 8.58385L11.0759 6.49553L10.5079 3.49851L7.11193 2.58982ZM6.85902 3.01161C6.96254 3.05111 7.08087 3.06058 7.19609 3.03874C7.31131 3.0169 7.41767 2.96485 7.49955 2.8902L9.96157 3.54902C9.96337 3.58332 9.96977 3.61708 9.98064 3.64967L7.93016 5.16375C7.82667 5.1243 7.70871 5.11479 7.59355 5.13662C7.47839 5.15844 7.37209 5.21046 7.29022 5.28504L4.82761 4.62634C4.82579 4.59212 4.81941 4.55844 4.80858 4.52594L6.85902 3.01161ZM10.2543 3.90878C10.2908 3.92257 10.329 3.93266 10.3684 3.93917L10.7802 6.11201C10.6818 6.17046 10.6062 6.25281 10.5644 6.34697C10.5225 6.44114 10.5167 6.54216 10.5477 6.63522L8.49726 8.1493C8.461 8.1356 8.42277 8.12549 8.38328 8.11916L7.97099 5.95857C8.06935 5.90017 8.14503 5.81787 8.18693 5.72375C8.22883 5.62962 8.23473 5.52861 8.20378 5.43555L10.2543 3.90878ZM4.67237 4.97916L7.13468 5.63792C7.13984 5.73588 7.18223 5.82777 7.25562 5.9001C7.32901 5.97242 7.42954 6.02138 7.54246 6.03979L7.95429 8.21263C7.91971 8.23315 7.88819 8.25672 7.85934 8.28288L5.39703 7.62413C5.39187 7.52616 5.34948 7.43428 5.27609 7.36195C5.2027 7.28962 5.10217 7.24066 4.98924 7.22226L4.57742 5.04942C4.61189 5.02883 4.64353 5.0053 4.67237 4.97916Z" fill="#743ABE"/>
</g>
</svg>
